<svg width="88" height="26" viewBox="0 0 88 26" fill="none" xmlns="http://www.w3.org/2000/svg">
<path d="M13 2L2 13L13 24" stroke="#313131" stroke-width="3" stroke-linecap="round" stroke-linejoin="round"/>
<path d="M39.76 15.368C39.472 16.568 39.112 17.6 38.608 18.32C38.056 19.112 37.288 19.256 34.864 19.256C33.448 19.256 33.304 19.112 33.28 18.848C33.232 18.2 33.208 16.424 33.208 14.456V10.232C33.208 8.384 33.28 7.088 33.328 6.2C33.352 5.792 33.496 5.648 34 5.6L35.32 5.48L35.248 4.784C33.904 4.808 32.824 4.88 31.912 4.88C30.976 4.88 29.296 4.784 28.648 4.784L28.624 5.48L29.872 5.576C30.352 5.624 30.52 5.744 30.544 6.128C30.568 6.632 30.592 7.4 30.592 9.296V14.384C30.592 16.352 30.52 17.888 30.448 18.656C30.424 19.064 30.256 19.184 29.728 19.256L28.384 19.376L28.36 20.072C28.96 20.072 30.928 20 31.984 20C33.784 20 35.608 20.024 36.976 20.024C38.392 20.048 39.448 20.072 39.88 20.12C40.048 18.608 40.24 16.52 40.432 15.416L39.76 15.368ZM47.5084 9.416C43.9804 9.416 42.0364 11.888 42.0364 14.984C42.0364 18.032 43.7644 20.336 47.3644 20.336C50.7244 20.336 52.7644 18.152 52.7644 14.792C52.7644 11.6 50.7484 9.416 47.5084 9.416ZM47.3884 10.16C48.3484 10.16 48.9964 10.664 49.4044 11.456C49.8124 12.176 50.0764 13.496 50.0764 15.008C50.0764 16.496 49.8604 17.648 49.5004 18.392C49.0684 19.208 48.4444 19.592 47.5804 19.592C46.6444 19.592 45.9004 19.112 45.4204 18.2C45.0124 17.384 44.7484 16.064 44.7484 14.576C44.7484 13.184 45.0124 11.984 45.4444 11.288C45.8764 10.592 46.4764 10.16 47.3884 10.16ZM56.7601 20.936C56.2321 21.104 55.6081 21.416 55.2481 21.68C54.6241 22.088 54.3361 22.568 54.3361 23.216C54.3361 24.824 55.9441 25.904 58.8001 25.904C61.8001 25.904 65.1361 24.392 65.1361 21.2C65.1361 20.384 64.7761 19.52 64.1521 19.016C63.5761 18.56 62.9041 18.392 62.1601 18.392C59.9761 18.392 58.3681 18.44 57.0481 18.44C56.2801 18.44 55.6561 18.08 55.6561 17.456C55.6561 16.88 56.0641 16.376 56.5921 16.184C57.0481 16.52 57.9601 16.88 59.2561 16.88C61.4401 16.88 63.6241 15.704 63.6241 13.088C63.6241 12.08 63.2641 11.096 62.5441 10.4C62.7841 10.304 63.0241 10.256 63.3121 10.256C63.8401 10.256 64.2241 10.424 64.4881 10.64C64.8001 10.496 65.3281 10.016 65.3521 9.608C65.3521 9.32 64.8961 8.864 64.2961 8.864C63.5521 8.864 62.7841 9.392 62.0161 10.016C61.7521 9.848 60.9121 9.416 59.5441 9.416C57.3361 9.416 55.2001 10.664 55.2001 13.328C55.2001 14.168 55.4401 15.056 56.0641 15.704C55.3201 16.184 54.4801 17 54.4801 18.2C54.4801 18.872 54.6961 19.4 55.0801 19.784C55.7041 20.504 56.5681 20.72 57.6001 20.744C58.4881 20.744 60.0961 20.744 61.8721 20.744C62.7601 20.768 63.4321 21.272 63.4321 22.208C63.4321 23.696 62.1601 25.016 59.4241 25.016C57.4081 25.016 56.0161 24.152 56.0161 22.832C56.0161 22.04 56.4961 21.608 57.0961 21.344L56.7601 20.936ZM59.4001 10.136C60.8401 10.136 61.2001 11.72 61.2001 13.16C61.2001 14.84 60.7441 16.16 59.4001 16.16C58.1041 16.16 57.6001 14.696 57.6001 13.136C57.6001 11.24 58.2001 10.136 59.4001 10.136ZM68.4828 4.736C67.6668 4.736 67.0908 5.312 67.0908 6.152C67.0908 6.968 67.6908 7.472 68.3867 7.472C69.2028 7.472 69.8268 6.92 69.8268 6.128C69.8268 5.264 69.3468 4.736 68.4828 4.736ZM71.3388 19.4C70.1388 19.328 69.9228 19.232 69.8748 18.704C69.8508 18.176 69.8268 17.432 69.8268 15.968V13.16C69.8268 11.264 69.8748 9.992 69.8988 9.416C68.7228 9.68 67.1148 9.8 65.9148 9.848L65.8668 10.52C67.1148 10.472 67.3308 10.544 67.3548 10.88C67.4028 11.264 67.4268 12.08 67.4268 13.304V15.944C67.4268 17.336 67.3788 18.272 67.3308 18.728C67.3068 19.184 67.1388 19.352 65.7708 19.4L65.7468 20.072C66.4908 20.072 67.1628 20 68.4348 20C69.6588 20 70.5708 20.072 71.3148 20.072L71.3388 19.4ZM72.4533 20.072C73.1733 20.072 74.0373 20 75.0693 20C75.9813 20 77.2053 20.072 77.8293 20.072L77.8533 19.4C76.6773 19.352 76.4853 19.232 76.4373 18.752C76.3893 18.2 76.3893 17.192 76.3893 16.208V13.328C76.3893 12.824 76.4373 12.488 76.6533 12.152C77.1813 11.24 77.9973 10.688 79.0773 10.688C79.8693 10.688 80.3013 11 80.5893 11.552C80.7813 11.96 80.8293 12.224 80.8293 15.296C80.8293 17.192 80.7573 18.248 80.7093 18.752C80.6853 19.208 80.4453 19.352 79.4133 19.4L79.3893 20.072C79.9413 20.072 80.7333 20 81.9093 20C82.9893 20 83.9012 20.072 84.6933 20.072L84.7413 19.4C83.3493 19.304 83.2053 19.256 83.2053 18.752V12.344C83.2053 11.768 83.1093 11.264 82.8933 10.856C82.5333 10.136 81.7173 9.416 80.1333 9.416C78.4053 9.416 77.2533 10.424 76.4133 11.264C76.3893 10.88 76.3173 9.968 76.2453 9.512C75.0693 9.728 73.7733 9.848 72.5732 9.848L72.5253 10.52C73.7493 10.544 73.9173 10.592 73.9173 10.928C73.9653 11.552 73.9893 12.56 73.9893 13.808V15.968C73.9893 17.12 73.9653 17.96 73.9173 18.68C73.8693 19.256 73.6773 19.352 72.4533 19.4V20.072Z" fill="#313131"/>
</svg>
