<svg width="460" height="34" viewBox="0 0 460 34" fill="none" xmlns="http://www.w3.org/2000/svg">
<path d="M216 0.000366211V11.8429L223.082 6.39864L216 0.000366211Z" fill="url(#paint0_linear_17_302)"/>
<path d="M216 31.9849L223.082 25.5881L216 20.1479V31.9849Z" fill="url(#paint1_linear_17_302)"/>
<path d="M231.63 31.8304L225.329 27.3204L219.998 31.9849L231.63 31.8304Z" fill="url(#paint2_linear_17_302)"/>
<path d="M229.279 14.2956L247.097 0H236.712L216 15.9214L229.279 14.2956Z" fill="url(#paint3_linear_17_302)"/>
<path d="M216 15.9214L236.711 31.8366H247.097L229.279 17.5383L216 15.9214Z" fill="url(#paint4_linear_17_302)"/>
<line y1="18.5" x2="200" y2="18.5" stroke="#3F32BC" stroke-width="3"/>
<line x1="260" y1="18.5" x2="460" y2="18.5" stroke="#3F32BC" stroke-width="3"/>
<defs>
<linearGradient id="paint0_linear_17_302" x1="219.541" y1="0.000366211" x2="219.541" y2="11.8429" gradientUnits="userSpaceOnUse">
<stop stop-color="#5643E5"/>
<stop offset="1" stop-color="#1F1472"/>
</linearGradient>
<linearGradient id="paint1_linear_17_302" x1="219.541" y1="20.1479" x2="219.541" y2="31.9849" gradientUnits="userSpaceOnUse">
<stop stop-color="#5643E5"/>
<stop offset="1" stop-color="#1F1472"/>
</linearGradient>
<linearGradient id="paint2_linear_17_302" x1="219.854" y1="31.2398" x2="231.097" y2="29.0702" gradientUnits="userSpaceOnUse">
<stop stop-color="#5643E5"/>
<stop offset="1" stop-color="#1F1472"/>
</linearGradient>
<linearGradient id="paint3_linear_17_302" x1="231.548" y1="0" x2="231.548" y2="15.9214" gradientUnits="userSpaceOnUse">
<stop stop-color="#5643E5"/>
<stop offset="1" stop-color="#1F1472"/>
</linearGradient>
<linearGradient id="paint4_linear_17_302" x1="231.548" y1="15.9214" x2="231.548" y2="31.8366" gradientUnits="userSpaceOnUse">
<stop stop-color="#5643E5"/>
<stop offset="1" stop-color="#1F1472"/>
</linearGradient>
</defs>
</svg>
