<svg width="50" height="50" viewBox="0 0 50 50" fill="none" xmlns="http://www.w3.org/2000/svg">
<path d="M35.4163 4.16629C38.1766 4.17454 40.8216 5.27473 42.7734 7.22659C44.7253 9.17845 45.8255 11.8234 45.8337 14.5837V35.4163C45.8255 38.1766 44.7253 40.8216 42.7734 42.7734C40.8216 44.7253 38.1766 45.8255 35.4163 45.8337H14.5837C11.8234 45.8255 9.17845 44.7253 7.22659 42.7734C5.27473 40.8216 4.17454 38.1766 4.16629 35.4163V14.5837C4.17454 11.8234 5.27473 9.17845 7.22659 7.22659C9.17845 5.27473 11.8234 4.17454 14.5837 4.16629H35.4163ZM35.4163 0H14.5837C6.5625 0 0 6.5625 0 14.5837V35.4163C0 43.4375 6.5625 50 14.5837 50H35.4163C43.4375 50 50 43.4375 50 35.4163V14.5837C50 6.5625 43.4375 0 35.4163 0Z" fill="url(#paint0_linear_11_448)"/>
<path d="M38.5413 14.5837C37.9232 14.5837 37.319 14.4005 36.8051 14.0571C36.2912 13.7137 35.8907 13.2256 35.6542 12.6546C35.4177 12.0836 35.3558 11.4553 35.4763 10.8491C35.5969 10.2429 35.8946 9.68607 36.3316 9.24903C36.7686 8.81199 37.3255 8.51437 37.9316 8.39379C38.5378 8.27321 39.1662 8.33509 39.7372 8.57162C40.3082 8.80814 40.7963 9.20868 41.1396 9.72258C41.483 10.2365 41.6663 10.8407 41.6663 11.4587C41.6672 11.8694 41.587 12.2761 41.4302 12.6557C41.2735 13.0352 41.0433 13.3801 40.753 13.6704C40.4626 13.9608 40.1178 14.1909 39.7382 14.3477C39.3587 14.5044 38.9519 14.5846 38.5413 14.5837ZM25 16.6663C26.6483 16.6663 28.2595 17.1551 29.63 18.0708C31.0004 18.9865 32.0686 20.2881 32.6993 21.8109C33.3301 23.3337 33.4951 25.0093 33.1736 26.6259C32.852 28.2424 32.0583 29.7274 30.8928 30.8929C29.7273 32.0583 28.2424 32.8521 26.6258 33.1736C25.0092 33.4952 23.3336 33.3301 21.8108 32.6994C20.288 32.0686 18.9865 31.0005 18.0708 29.63C17.1551 28.2595 16.6663 26.6483 16.6663 25C16.6687 22.7905 17.5474 20.6722 19.1098 19.1098C20.6722 17.5475 22.7905 16.6687 25 16.6663ZM25 12.5C22.5277 12.5 20.111 13.2331 18.0554 14.6067C15.9998 15.9802 14.3976 17.9324 13.4515 20.2165C12.5054 22.5006 12.2579 25.0139 12.7402 27.4387C13.2225 29.8634 14.413 32.0907 16.1612 33.8389C17.9093 35.587 20.1366 36.7775 22.5614 37.2599C24.9861 37.7422 27.4995 37.4946 29.7835 36.5485C32.0676 35.6024 34.0199 34.0003 35.3934 31.9447C36.7669 29.889 37.5 27.4723 37.5 25C37.5 21.6848 36.183 18.5054 33.8388 16.1612C31.4946 13.817 28.3152 12.5 25 12.5Z" fill="url(#paint1_linear_11_448)"/>
<defs>
<linearGradient id="paint0_linear_11_448" x1="25" y1="0" x2="25" y2="50" gradientUnits="userSpaceOnUse">
<stop stop-color="#5543E4"/>
<stop offset="1" stop-color="#1E1370"/>
</linearGradient>
<linearGradient id="paint1_linear_11_448" x1="27.0832" y1="8.33374" x2="27.0832" y2="37.5" gradientUnits="userSpaceOnUse">
<stop stop-color="#5543E4"/>
<stop offset="1" stop-color="#1E1370"/>
</linearGradient>
</defs>
</svg>
